<?xml version="1.0" encoding="UTF-8"?>
<svg id="Ebene_1" data-name="Ebene 1" xmlns="http://www.w3.org/2000/svg" width="17.5mm" height="19.67mm" viewBox="0 0 49.6 55.76">
  <path d="M47.1,27.14h-1.5v14.5h.7c1.4,0,2.5-1.1,2.5-2.5v-5.2c.5-.5.8-1.1.8-1.8v-2.5c0-1.4-1.1-2.5-2.5-2.5Z" style="fill: #fff; stroke-width: 0px;"/>
  <path d="M3.2,27.14h-.7c-1.4,0-2.5,1.1-2.5,2.5v2.5c0,.7.3,1.4.8,1.8v5.2c0,1.4,1.1,2.5,2.5,2.5h.7v-14.5s-.8,0-.8,0Z" style="fill: #fff; stroke-width: 0px;"/>
  <path d="M5.8,37.24c0,1.1.2,2.1.3,3,8.7,4.4,28.6,4.4,37.4,0,.1-1,.2-2,.3-3-4.5,2.3-11.8,3.4-19,3.4s-14.5-1.1-19-3.4Z" style="fill: #fff; stroke-width: 0px;"/>
  <path d="M6.4,41.54l.2,1c.5,2.9,1.6,5.6,3.3,7.9,1.5,2,3.6,3.4,6,4.1,2.9.9,6,1.3,9,1.2,3,0,6.1-.3,9-1.2,2.4-.7,4.5-2.2,6-4.1,1.7-2.3,2.8-5.1,3.3-7.9,0-.3.1-.7.2-1-4.6,2.1-11.5,3.2-18.5,3.2s-13.9-1-18.5-3.2Z" style="fill: #fff; stroke-width: 0px;"/>
  <path d="M43.2,17.44c-.5-2.9-1.6-5.6-3.3-7.9-.6-.7-1.2-1.3-1.9-1.9l2.4-4.1c.6,0,1.3-.3,1.6-.9.5-.8.2-1.9-.6-2.4-.8-.5-1.9-.2-2.4.6-.4.6-.3,1.4,0,2l-2.3,3.9c-.9-.6-1.8-1-2.8-1.3-2.9-.9-6-1.3-9-1.2-3,0-6.1.3-9,1.2-1,.3-2,.8-2.9,1.4l-2.3-4c.6-.8.4-1.9-.4-2.4-.8-.6-1.9-.4-2.4.4-.4.6-.4,1.3,0,1.9.3.6.9.9,1.6.9l2.4,4.2c-.7.6-1.3,1.2-1.9,1.9-1.7,2.3-2.8,5-3.3,7.9-.7,4.2-1.1,8.4-1,12.6,0,2.2,0,4.2.2,6.1,8.6,4.7,29.6,4.7,38.2,0,.1-1.9.2-3.9.2-6.1,0-4.2-.3-8.4-1-12.6l-.1-.2ZM24.8,30.54c-5.4,0-9.7-4.4-9.7-9.7s4.4-9.7,9.7-9.7,9.7,4.4,9.7,9.7h0c0,5.4-4.4,9.7-9.7,9.7Z" style="fill: #fff; stroke-width: 0px;"/>
  <path id="Blink" d="M18.1,22.14c.1.5.3,1.1.5,1.6h12.5c.2-.5.4-1,.5-1.6h-13.5Z" style="fill: #fff; stroke-width: 0px;"/>
</svg>