<?xml version="1.0" encoding="utf-8"?>
<!-- Generator: Adobe Illustrator 28.5.0, SVG Export Plug-In . SVG Version: 9.03 Build 54727)  -->
<svg version="1.1" id="Ebene_1" xmlns="http://www.w3.org/2000/svg" xmlns:xlink="http://www.w3.org/1999/xlink" x="0px" y="0px"
	 viewBox="0 0 49.6 55.8" enable-background="new 0 0 49.6 55.8" xml:space="preserve">
<linearGradient id="SVGID_1_" gradientUnits="userSpaceOnUse" x1="-3.2936" y1="27.6387" x2="53.5137" y2="27.6387" gradientTransform="matrix(0 1 -1 0 52.435 2.805)">
	<stop  offset="0" style="stop-color:#00DB9E"/>
	<stop  offset="1" style="stop-color:#8F44F2"/>
</linearGradient>
<polygon display="none" fill="url(#SVGID_1_)" points="50.1,-0.5 50.1,56.3 -0.5,56.3 -0.5,-0.5 "/>
<path id="Std" fill="#FFFFFF" d="M24.8,13.9c-3.8,0-6.9,3.1-6.9,6.9c0,3.8,3.1,6.9,6.9,6.9c3.8,0,6.9-3.1,6.9-6.9
	C31.7,16.9,28.6,13.9,24.8,13.9z M23.5,17.7c0-1.3,1-2.3,2.3-2.3s2.3,1,2.3,2.3s-1,2.3-2.3,2.3S23.5,19,23.5,17.7z M28.1,21.9
	c-0.5,0-1-0.4-1-1s0.4-1,1-1c0.5,0,1,0.4,1,1S28.6,21.9,28.1,21.9z"/>
<path fill="#FFFFFF" d="M47.1,27.1h-1.5v14.5h0.7c1.4,0,2.5-1.1,2.5-2.5V34c0.5-0.5,0.8-1.1,0.8-1.8v-2.5
	C49.6,28.2,48.5,27.1,47.1,27.1z"/>
<path fill="#FFFFFF" d="M3.2,27.1H2.5c-1.4,0-2.5,1.1-2.5,2.5v2.5c0,0.7,0.3,1.4,0.8,1.8v5.2c0,1.4,1.1,2.5,2.5,2.5H4V27.1L3.2,27.1
	L3.2,27.1z"/>
<path fill="#FFFFFF" d="M5.8,37.2c0.1,1.1,0.2,2.1,0.3,3c8.7,4.4,28.6,4.4,37.4,0c0.1-1,0.2-2,0.3-3c-4.5,2.3-11.8,3.4-19,3.4
	S10.4,39.5,5.8,37.2z"/>
<path fill="#FFFFFF" d="M6.4,41.5l0.2,1c0.5,2.9,1.6,5.6,3.3,7.9c1.5,2,3.6,3.4,6,4.1c2.9,0.9,6,1.3,9,1.2c3,0.1,6.1-0.3,9-1.2
	c2.4-0.7,4.5-2.2,6-4.1c1.7-2.3,2.8-5.1,3.3-7.9c0.1-0.3,0.1-0.7,0.2-1c-4.6,2.1-11.5,3.2-18.5,3.2S10.9,43.6,6.4,41.5z"/>
<path id="Happy" display="none" fill="#FFFFFF" d="M24.8,13.9c-3.8,0-6.9,3.1-6.9,6.9c0,1,0.2,2,0.6,2.9h12.5
	c0.4-0.9,0.6-1.8,0.6-2.9C31.7,16.9,28.6,13.9,24.8,13.9z M23.5,17.7c0-1.3,1-2.3,2.3-2.3s2.3,1,2.3,2.3s-1,2.3-2.3,2.3
	S23.5,19,23.5,17.7z M28.1,21.9c-0.5,0-1-0.4-1-1s0.4-1,1-1c0.5,0,1,0.4,1,1S28.6,21.9,28.1,21.9z"/>
<path fill="#FFFFFF" d="M43.2,17.4c-0.5-2.9-1.6-5.6-3.3-7.9c-0.6-0.7-1.2-1.3-1.9-1.9l2.4-4.1c0.6,0,1.3-0.3,1.6-0.9
	c0.5-0.8,0.2-1.9-0.6-2.4c-0.8-0.5-1.9-0.2-2.4,0.6c-0.4,0.6-0.3,1.4,0.1,2l-2.3,3.9c-0.9-0.6-1.8-1-2.8-1.3c-2.9-0.9-6-1.3-9-1.2
	c-3-0.1-6.1,0.3-9,1.2c-1,0.3-2,0.8-2.9,1.4l-2.3-4c0.6-0.8,0.4-1.9-0.4-2.4S8.4-0.1,7.9,0.7C7.5,1.3,7.4,2,7.8,2.6
	c0.3,0.6,0.9,0.9,1.6,0.9l2.4,4.2C11,8.2,10.4,8.8,9.8,9.5c-1.7,2.3-2.8,5-3.3,7.9c-0.7,4.2-1.1,8.4-1,12.6c0,2.2,0.1,4.2,0.2,6.1
	c8.6,4.7,29.6,4.7,38.2,0c0.1-1.9,0.2-3.9,0.2-6.1C44.2,25.8,43.9,21.5,43.2,17.4z M24.8,30.5c-5.4,0-9.7-4.4-9.7-9.7
	c0-5.4,4.4-9.7,9.7-9.7s9.7,4.4,9.7,9.7c0,0,0,0,0,0C34.6,26.1,30.2,30.5,24.8,30.5z"/>
<path id="Blink" display="none" fill="#FFFFFF" d="M18.1,22.1c0.1,0.5,0.3,1.1,0.5,1.6h12.5c0.2-0.5,0.4-1,0.5-1.6H18.1z"/>
</svg>