<?xml version="1.0" encoding="UTF-8"?>
<svg id="Ebene_1" data-name="Ebene 1" xmlns="http://www.w3.org/2000/svg" version="1.1" viewBox="0 0 72.4 23.3">
  <defs>
    <style>
      .cls-1 {
        fill: #000;
        stroke-width: 0px;
      }
    </style>
  </defs>
  <path class="cls-1" d="M36.2,18.6c-2.2,0-4.3-.6-6.1-1.9-.5-.3-.6-.9-.3-1.4.3-.5.9-.6,1.4-.3,0,0,0,0,.1,0,1.4,1,3.2,1.5,4.9,1.5,1.7.1,3.5-.4,4.9-1.4.4-.3,1.1-.3,1.4.1.3.4.3,1,0,1.4-1.8,1.4-4,2-6.2,1.9ZM7.5.1C3.4.1,0-1,0,3.1s3.4,6,7.5,6,7.5-1.8,7.5-6S11.6.1,7.5.1ZM64.9.1c-4.1,0-7.5-1.1-7.5,3s3.4,6,7.5,6,7.5-1.8,7.5-6-3.4-3-7.5-3Z"/>
</svg>