<?xml version="1.0" encoding="UTF-8"?>
<svg id="Ebene_1" data-name="Ebene 1" xmlns="http://www.w3.org/2000/svg" width="17.51mm" height="19.7mm" viewBox="0 0 49.63 55.84">
  <defs>
    <style>
      .cls-1 {
        fill: #fff;
        stroke-width: 0px;
      }
    </style>
  </defs>
  <path class="cls-1" d="M47.13,27.17h-1.53v14.53h.72c1.38,0,2.5-1.12,2.5-2.5v-5.16c.51-.47.81-1.13.81-1.83v-2.54c0-1.38-1.12-2.5-2.5-2.5Z"/>
  <path class="cls-1" d="M3.22,27.18h-.72c-1.38,0-2.49,1.11-2.5,2.49v2.53c0,.7.29,1.37.81,1.84v5.17c0,1.38,1.12,2.5,2.5,2.5h.69v-14.54h-.78Z"/>
  <path class="cls-1" d="M5.83,37.29c.09,1.07.2,2.09.34,3,8.69,4.42,28.65,4.43,37.36,0,.14-1,.25-2,.35-3.05-4.55,2.27-11.78,3.4-19,3.4s-14.51-1.07-19.05-3.35Z"/>
  <path class="cls-1" d="M6.36,41.54l.18,1c.47,2.86,1.6,5.57,3.3,7.92,1.54,1.95,3.63,3.39,6,4.14,2.92.88,5.95,1.3,9,1.23,3.05.07,6.08-.35,9-1.23,2.37-.75,4.46-2.19,6-4.14,1.71-2.34,2.84-5.06,3.3-7.92.07-.33.13-.68.19-1-4.57,2.1-11.52,3.15-18.48,3.15s-13.93-1.04-18.49-3.15Z"/>
  <path id="Happy" class="cls-1" d="M24.82,13.9c-3.8,0-6.88,3.08-6.88,6.88,0,1.03.23,2,.64,2.88h12.49c.4-.88.64-1.85.64-2.88,0-3.8-3.08-6.88-6.88-6.88ZM23.54,17.78c0-1.26,1.02-2.28,2.28-2.28s2.28,1.02,2.28,2.28-1.02,2.28-2.28,2.28-2.28-1.02-2.28-2.28ZM28.1,21.97c-.55,0-.99-.44-.99-.99s.44-.99.99-.99.99.44.99.99-.44.99-.99.99Z"/>
  <path class="cls-1" d="M43.16,17.42c-.46-2.85-1.59-5.56-3.3-7.89-.57-.71-1.22-1.35-1.93-1.91l2.37-4.11c.64.03,1.25-.3,1.57-.86.5-.82.25-1.89-.57-2.39-.82-.5-1.89-.25-2.39.57-.38.61-.34,1.39.1,1.96l-2.32,3.93c-.88-.55-1.82-1-2.8-1.33-2.92-.88-5.95-1.29-9-1.22-3.05-.07-6.08.34-9,1.22-1.01.34-1.98.8-2.88,1.37l-2.29-4c.56-.78.38-1.87-.4-2.43-.78-.56-1.87-.38-2.43.4-.4.56-.43,1.29-.09,1.89.32.56.93.89,1.57.86l2.39,4.15c-.7.56-1.34,1.2-1.91,1.9-1.7,2.34-2.83,5.04-3.3,7.89-.73,4.16-1.07,8.38-1,12.6,0,2.19.06,4.22.19,6.09,8.58,4.73,29.62,4.73,38.22,0,.13-1.87.2-3.9.2-6.1.08-4.22-.25-8.44-.99-12.59ZM24.82,30.52c-5.38,0-9.74-4.35-9.75-9.73,0-5.38,4.35-9.74,9.73-9.75,5.38,0,9.74,4.35,9.75,9.73,0,0,0,0,0,0,0,5.38-4.35,9.73-9.73,9.74Z"/>
</svg>