<?xml version="1.0" encoding="UTF-8"?>
<svg id="Ebene_1" data-name="Ebene 1" xmlns="http://www.w3.org/2000/svg" version="1.1" viewBox="0 0 92.4 43.7">
  <defs>
    <style>
      .cls-1 {
        fill: #000;
        stroke-width: 0px;
      }
    </style>
  </defs>
  <path class="cls-1" d="M9.5,34.9c-.2,0-.4,0-.5-.2l-5.2-5.2c-.3-.3-.3-.8,0-1.1.3-.3.8-.3,1.1,0l5.1,5.2c.3.3.3.8,0,1.1-.1.1-.3.2-.5.2ZM18.7,33.1c.3-.3.3-.8,0-1.1l-2-2c-.3-.3-.8-.3-1,0,0,0,0,0,0,0-.3.3-.3.8,0,1.1l2,2c.1.1.3.2.5.2.2,0,.4,0,.5-.2ZM3.3,33.1c.3-.3.3-.8,0-1.1l-2-2c-.3-.3-.8-.3-1,0,0,0,0,0,0,0-.3.3-.3.8,0,1.1l2,2c.1.1.3.2.5.2.2,0,.4,0,.5-.2ZM15.1,34.7c.3-.3.3-.8,0-1.1l-5.1-5.2c-.3-.3-.8-.3-1.1,0-.3.3-.3.8,0,1.1l5.2,5.2c.1.1.3.2.5.2.2,0,.4,0,.5-.2ZM83.5,34.7c.3-.3.3-.8,0-1.1l-5.2-5.2c-.3-.3-.8-.3-1.1,0-.3.3-.3.8,0,1.1l5.2,5.2c.3.3.8.3,1.1,0ZM92.1,33.1c.3-.3.3-.8,0-1,0,0,0,0,0,0l-2-2c-.3-.3-.8-.3-1,0,0,0,0,0,0,0-.3.3-.3.8,0,1.1l2,2c.1.1.3.2.5.2.2,0,.4,0,.5-.2ZM76.8,33.1c.3-.3.3-.8,0-1,0,0,0,0,0,0l-2-2c-.3-.3-.8-.3-1,0,0,0,0,0,0,0-.3.3-.3.8,0,1.1l2,2c.1.1.3.2.5.2.2,0,.4,0,.5-.2ZM88.6,34.7c.3-.3.3-.8,0-1,0,0,0,0,0,0l-5.2-5.2c-.3-.3-.8-.3-1.1,0-.3.3-.3.8,0,1.1l5.2,5.2c.1.1.3.2.5.2.2,0,.4,0,.5-.2ZM92.2,9.5c-1.4,6.5-8.6,11-11.9,11s-9.5-4.5-11.9-11c-2.3-6.2,4.2-12.9,11.9-7.6,7-5.2,13.3,1.1,11.9,7.6ZM77.8,7.1c0-1.8-1.4-3.2-3.2-3.2-1.8,0-3.2,1.4-3.2,3.2s1.4,3.2,3.2,3.2c1.8,0,3.2-1.4,3.2-3.2,0,0,0,0,0,0ZM79.4,15.4c0-.7-.5-1.2-1.2-1.2s-1.2.5-1.2,1.2.5,1.2,1.2,1.2,1.2-.5,1.2-1.2h0ZM24.3,9.5c-1.4,6.5-8.6,11-11.9,11S2.8,16,.5,9.5C-1.8,3.3,4.7-3.4,12.4,1.9c7-5.2,13.3,1.1,11.9,7.6ZM9.9,7.1c0-1.8-1.4-3.2-3.2-3.2-1.8,0-3.2,1.4-3.2,3.2,0,1.7,1.4,3.2,3.2,3.2,1.8,0,3.2-1.4,3.2-3.2,0,0,0,0,0,0ZM11.5,15.4c0-.7-.5-1.2-1.2-1.2s-1.2.5-1.2,1.2c0,.7.5,1.2,1.2,1.2,0,0,0,0,0,0,.7,0,1.2-.5,1.2-1.2,0,0,0,0,0,0ZM55.4,31.6c0-.6-.4-1-1-1h-16.4c-.6,0-1,.4-1,1s.4,1,1,1h16.4c.6,0,1-.4,1-1Z"/>
</svg>