<?xml version="1.0" encoding="UTF-8"?>
<svg id="Ebene_1" data-name="Ebene 1" xmlns="http://www.w3.org/2000/svg" version="1.1" viewBox="0 0 92.3 36.7">
  <defs>
    <style>
      .cls-1 {
        fill: #000;
        stroke-width: 0px;
      }
    </style>
  </defs>
  <path class="cls-1" d="M9.4,27.6c-.2,0-.4,0-.5-.2l-5.2-5.2c-.3-.3-.3-.8,0-1.1.3-.3.8-.3,1,0,0,0,0,0,0,0l5.2,5.1c.3.3.3.8,0,1,0,0,0,0,0,0-.1.1-.3.2-.6.2ZM18.6,25.8c.3-.3.3-.8,0-1,0,0,0,0,0,0l-2-2c-.3-.3-.8-.3-1,0,0,0,0,0,0,0-.3.3-.3.8,0,1.1l2,2c.1.1.3.2.5.2.2,0,.4,0,.5-.2ZM3.3,25.8c.3-.3.3-.8,0-1,0,0,0,0,0,0l-2-2c-.3-.3-.8-.3-1,0,0,0,0,0,0,0-.3.3-.3.8,0,1.1l2,2c.1.1.3.2.5.2.2,0,.4,0,.5-.2ZM15.1,27.4c.3-.3.3-.8,0-1,0,0,0,0,0,0l-5.1-5.1c-.3-.3-.8-.3-1,0,0,0,0,0,0,0-.3.3-.3.8,0,1.1l5.1,5.1c.1.1.3.2.5.2.2,0,.4,0,.6-.2ZM83.4,27.4c.3-.3.3-.8,0-1.1l-5.2-5.1c-.3-.3-.8-.3-1.1,0-.3.3-.3.7,0,1l5.2,5.1c.3.3.8.3,1.1,0ZM92.1,25.8c.3-.3.3-.8,0-1.1l-2-2c-.3-.3-.8-.3-1.1,0s-.3.8,0,1.1h0l2,2c.3.3.8.3,1.1,0h0ZM76.7,25.8c.3-.3.3-.8,0-1.1l-2-2c-.3-.3-.8-.3-1.1,0-.3.3-.3.7,0,1l2,2c.3.3.8.3,1.1,0ZM88.5,27.4c.3-.3.3-.8,0-1.1l-5.2-5.1c-.3-.3-.8-.3-1.1,0-.3.3-.3.7,0,1l5.2,5.1c.3.3.8.3,1.1,0ZM53.5,28.6c.5-.1.9-.7.7-1.2-.1-.5-.7-.9-1.2-.7-2.2.5-4.5.7-6.8.6-2.3,0-4.6-.2-6.8-.6-.5-.1-1.1.2-1.2.7,0,0,0,0,0,0-.1.5.2,1.1.7,1.2,2.4.5,4.9.7,7.3.7,2.5,0,4.9-.2,7.3-.7ZM71.6,5.8c3.2-3.6,8.7-4,12.3-.9.3.3.6.6.9.9.5.6,1.4.7,2,.2s.7-1.4.2-2c-4.2-4.8-11.5-5.4-16.3-1.2-.4.4-.8.8-1.2,1.2-.5.6-.4,1.5.1,2,.6.5,1.5.5,2-.1,0,0,0,0,0,0h0ZM7.5,5.8c3.2-3.6,8.7-4,12.3-.9.3.3.6.6.9.9.6.5,1.5.5,2,0,.5-.5.5-1.2.1-1.8C18.6-.8,11.3-1.3,6.5,2.9c-.4.3-.8.7-1.1,1.1-.5.6-.5,1.5.1,2,0,0,0,0,0,0,.6.5,1.5.5,2-.1,0,0,0,0,0,0h0Z"/>
</svg>